<svg id="color" enable-background="new 0 0 24 24" height="512" viewBox="0 0 24 24" width="512" xmlns="http://www.w3.org/2000/svg"><path d="m17.739 20h-12.435c-2.925 0-5.304-2.333-5.304-5.2 0-2.618 1.983-4.79 4.554-5.148.859-3.274 3.924-5.652 7.446-5.652 2.775 0 5.339 1.479 6.688 3.811 3.022.441 5.312 2.999 5.312 6.056 0 3.382-2.809 6.133-6.261 6.133z" fill="#eceff1"/><path d="m12 4c-3.522 0-6.587 2.378-7.446 5.652-2.571.358-4.554 2.53-4.554 5.148 0 2.867 2.379 5.2 5.304 5.2h6.696z" fill="#cdd0d2"/><g fill="#607d8b"><path d="m11.25 16c-.414 0-.75-.336-.75-.75v-3.25c0-.276-.224-.5-.5-.5s-.5.224-.5.5v3.25c0 .414-.336.75-.75.75s-.75-.336-.75-.75v-3.25c0-1.103.897-2 2-2s2 .897 2 2v3.25c0 .414-.336.75-.75.75z"/><path d="m11.25 14.5h-2.5c-.414 0-.75-.336-.75-.75s.336-.75.75-.75h2.5c.414 0 .75.336.75.75s-.336.75-.75.75z"/><path d="m14.75 16c-.414 0-.75-.336-.75-.75v-4.5c0-.414.336-.75.75-.75s.75.336.75.75v4.5c0 .414-.336.75-.75.75z"/></g><g fill="#546d79"><path d="m10 10c-1.103 0-2 .897-2 2v3.25c0 .414.336.75.75.75s.75-.336.75-.75v-.75h-.75c-.414 0-.75-.336-.75-.75s.336-.75.75-.75h.75v-1c0-.276.224-.5.5-.5z"/><path d="m10 13h-.5-.75c-.414 0-.75.336-.75.75s.336.75.75.75h.75.5z"/><path d="m14.75 10c-.414 0-.75.336-.75.75v4.5c0 .414.336.75.75.75z"/></g></svg>