<svg height="512pt" viewBox="-3 0 512 512.00965" width="512pt" xmlns="http://www.w3.org/2000/svg"><path d="m300.339844.132812c-28.199219-2.046874-52.71875 19.15625-54.769532 47.355469-2.046874 28.203125 19.15625 52.722657 47.359376 54.769531 28.199218 2.046876 52.71875-19.152343 54.765624-47.355468 2.046876-28.199219-19.152343-52.722656-47.355468-54.769532zm0 0"/><path d="m498.789062 56.199219c-9.289062-9.597657-24.601562-9.847657-34.199218-.558594l-66.53125 64.394531-132.007813-1.691406c-18.222656-1.324219-35.113281 5.753906-46.882812 17.945312l-2.242188 2.410157-69.136719 27.792969c-11.683593 4.699218-17.808593 17.578124-14.082031 29.605468l27.785157 89.585938c3.941406 12.707031 17.457031 19.910156 30.269531 15.9375 12.757812-3.957032 19.890625-17.507813 15.9375-30.265625l-21.183594-68.292969 57.230469-23.007812-37.5 25.378906 18.777344 60.546875c6.925781 22.328125-5.5625 46.042969-27.890626 52.964843-2.867187.890626-6.167968 1.542969-9.46875 1.785157l-57.976562 77.523437-114.679688 60.667969c-13.753906 7.277344-19.003906 24.324219-11.726562 38.078125 7.289062 13.78125 24.347656 18.992188 38.078125 11.730469l120.273437-63.625c3.683594-1.953125 6.890626-4.695313 9.386719-8.03125l63.765625-85.261719h.121094 123.152344l-33.007813 124.808594c-3.976562 15.042968 4.992188 30.464844 20.035157 34.441406 15.136718 4.003906 30.488281-5.085938 34.441406-20.03125l42.363281-160.1875c4.722656-17.863281-8.761719-35.378906-27.238281-35.378906h-69.621094l9.230469-127.058594h73.585937c6.277344 0 12.308594-2.4375 16.820313-6.804688l73.5625-71.199218c9.601562-9.292969 9.851562-24.601563.558593-34.203125zm0 0"/></svg>