<?xml version="1.0" encoding="iso-8859-1"?>
<!-- Generator: Adobe Illustrator 18.1.1, SVG Export Plug-In . SVG Version: 6.00 Build 0)  -->
<svg version="1.1" id="Capa_1" xmlns="http://www.w3.org/2000/svg" xmlns:xlink="http://www.w3.org/1999/xlink" x="0px" y="0px"
	 viewBox="0 0 21.073 21.073" style="enable-background:new 0 0 21.073 21.073;" xml:space="preserve">
<g>
	<path style="fill:#030104;" d="M14.377,7.183c0.702-0.847,1.035-1.305,1.097-2.416c0.351-6.281-9.418-6.05-10.096-1.095
		c-0.221,1.624,0.312,2.4,1.098,3.949c-1.032,1.435-2.194,2.595-2.414,4.39c-0.304,2.493,0.83,3.139,1.316,4.61
		c0.503,1.521,0.18,3.054,1.098,3.95c1.849,0.757,5.718,0.509,7.901,0.219c0.955-0.947,1.242-2.561,1.316-4.39
		C18.582,13.818,16.297,9.273,14.377,7.183z M9.11,1.697c-1.38,1.3-1.972,3.854,0.219,5.486c-0.887,1.722-2.194,2.485-2.412,4.391
		c-0.175,1.497,0.52,2.578,0.877,4.168c0.368,1.656,0.201,3.306,1.316,4.389c-2.345,0.648-1.954-2.245-2.416-3.949
		c-0.212-0.797-0.974-1.538-1.096-2.195C5.085,11.2,6.469,8.881,7.794,7.621C7.628,6.51,6.596,6.168,6.476,4.987
		C6.272,2.952,7.85,1.236,9.769,0.818C10.478,0.962,9.376,1.444,9.11,1.697z"/>
</g>
<g>
</g>
<g>
</g>
<g>
</g>
<g>
</g>
<g>
</g>
<g>
</g>
<g>
</g>
<g>
</g>
<g>
</g>
<g>
</g>
<g>
</g>
<g>
</g>
<g>
</g>
<g>
</g>
<g>
</g>
</svg>
